<?xml version="1.0" encoding="UTF-8" standalone="no"?>
<svg
   width="36"
   height="12"
   viewBox="0 0 36 12"
   version="1.1"
   id="svg14"
   sodipodi:docname="arrow_right_icon.svg"
   inkscape:version="1.2.1 (9c6d41e410, 2022-07-14)"
   xmlns:inkscape="http://www.inkscape.org/namespaces/inkscape"
   xmlns:sodipodi="http://sodipodi.sourceforge.net/DTD/sodipodi-0.dtd"
   xmlns="http://www.w3.org/2000/svg"
   xmlns:svg="http://www.w3.org/2000/svg"
   xmlns:rdf="http://www.w3.org/1999/02/22-rdf-syntax-ns#"
   xmlns:cc="http://creativecommons.org/ns#"
   xmlns:dc="http://purl.org/dc/elements/1.1/">
  <defs
     id="defs18" />
  <sodipodi:namedview
     id="namedview16"
     pagecolor="#ffffff"
     bordercolor="#666666"
     borderopacity="1.0"
     inkscape:showpageshadow="2"
     inkscape:pageopacity="0.0"
     inkscape:pagecheckerboard="true"
     inkscape:deskcolor="#d1d1d1"
     showgrid="false"
     inkscape:zoom="25.190679"
     inkscape:cx="16.375104"
     inkscape:cy="8.1776279"
     inkscape:window-width="1920"
     inkscape:window-height="1009"
     inkscape:window-x="1912"
     inkscape:window-y="-8"
     inkscape:window-maximized="1"
     inkscape:current-layer="g8" />
  <!-- Generator: Sketch 52.5 (67469) - http://www.bohemiancoding.com/sketch -->
  <title
     id="title2">keyboard_arrow_right</title>
  <desc
     id="desc4">Created with Sketch.</desc>
  <g
     id="Icons"
     stroke="none"
     stroke-width="1"
     fill="none"
     fill-rule="evenodd">
    <g
       id="Rounded"
       transform="translate(-687,-2464)">
      <g
         id="Hardware"
         transform="translate(100,2404)">
        <g
           id="-Round-/-Hardware-/-keyboard_arrow_right"
           transform="translate(579.99298,54)">
          <g
             id="g8">
            <rect
               id="Rectangle-Copy-105"
               x="0"
               y="0"
               width="24"
               height="24" />
            <path
               d="m 10.182459,15.882018 3.88,-3.88 -3.88,-3.88 c -0.3900001,-0.39 -0.3900001,-1.02 0,-1.41 0.39,-0.39 1.02,-0.39 1.41,0 l 4.59,4.59 c 0.39,0.39 0.39,1.02 0,1.41 l -4.59,4.59 c -0.39,0.39 -1.02,0.39 -1.41,0 -0.3800001,-0.39 -0.3900001,-1.03 0,-1.42 z"
               style="fill:#f8f8f8;fill-opacity:1"
               id="path373" />
            <path
               d="m 34.055362,15.973865 3.88,-3.88 -3.88,-3.8799997 c -0.39,-0.39 -0.39,-1.02 0,-1.41 0.39,-0.39 1.02,-0.39 1.41,0 l 4.59,4.5899997 c 0.39,0.39 0.39,1.02 0,1.41 l -4.59,4.59 c -0.39,0.39 -1.02,0.39 -1.41,0 -0.38,-0.39 -0.39,-1.03 0,-1.42 z"
               style="fill:#f8f8f8;fill-opacity:1"
               id="path373-4" />
          </g>
        </g>
      </g>
    </g>
  </g>
  <metadata
     id="metadata1265">
    <rdf:RDF>
      <cc:Work
         rdf:about="">
        <dc:title>keyboard_arrow_right</dc:title>
      </cc:Work>
    </rdf:RDF>
  </metadata>
</svg>
