<svg width="30" height="30" viewBox="0 0 30 30" fill="none" xmlns="http://www.w3.org/2000/svg">
<path d="M29.0625 1.875V10.3125C29.0625 10.8307 28.6432 11.25 28.125 11.25C27.6068 11.25 27.1875 10.8307 27.1875 10.3125V4.13812L13.7878 17.5378C13.6048 17.7209 13.3648 17.8125 13.125 17.8125C12.8852 17.8125 12.6452 17.7209 12.4622 17.5378C12.3751 17.4508 12.306 17.3475 12.2588 17.2338C12.2117 17.12 12.1874 16.9981 12.1874 16.875C12.1874 16.7519 12.2117 16.63 12.2588 16.5162C12.306 16.4025 12.3751 16.2992 12.4622 16.2122L25.8619 2.8125H19.6875C19.1693 2.8125 18.75 2.3932 18.75 1.875C18.75 1.3568 19.1693 0.9375 19.6875 0.9375H28.125C28.6432 0.9375 29.0625 1.3568 29.0625 1.875ZM25.3125 26.25V15C25.3125 14.4818 24.8932 14.0625 24.375 14.0625C23.8568 14.0625 23.4375 14.4818 23.4375 15V26.25C23.4375 26.7673 23.0173 27.1875 22.5 27.1875H3.75C3.23273 27.1875 2.8125 26.7673 2.8125 26.25V7.5C2.8125 6.98273 3.23273 6.5625 3.75 6.5625H15C15.5182 6.5625 15.9375 6.1432 15.9375 5.625C15.9375 5.1068 15.5182 4.6875 15 4.6875H3.75C2.19914 4.6875 0.9375 5.94914 0.9375 7.5V26.25C0.9375 27.8009 2.19914 29.0625 3.75 29.0625H22.5C24.0509 29.0625 25.3125 27.8009 25.3125 26.25Z" fill="white"/>
</svg>
