<?xml version="1.0" encoding="UTF-8" standalone="no"?>
<svg
   version="1.1"
   id="mdi-discord"
   width="24"
   height="24"
   viewBox="0 0 24 24"
   sodipodi:docname="discord_icon.svg"
   inkscape:version="1.2.1 (9c6d41e410, 2022-07-14)"
   xmlns:inkscape="http://www.inkscape.org/namespaces/inkscape"
   xmlns:sodipodi="http://sodipodi.sourceforge.net/DTD/sodipodi-0.dtd"
   xmlns="http://www.w3.org/2000/svg"
   xmlns:svg="http://www.w3.org/2000/svg">
  <defs
     id="defs7" />
  <sodipodi:namedview
     id="namedview5"
     pagecolor="#ffffff"
     bordercolor="#666666"
     borderopacity="1.0"
     inkscape:showpageshadow="2"
     inkscape:pageopacity="0.0"
     inkscape:pagecheckerboard="0"
     inkscape:deskcolor="#d1d1d1"
     showgrid="false"
     inkscape:zoom="35.625"
     inkscape:cx="12"
     inkscape:cy="12.014035"
     inkscape:window-width="1920"
     inkscape:window-height="1009"
     inkscape:window-x="1912"
     inkscape:window-y="-8"
     inkscape:window-maximized="1"
     inkscape:current-layer="mdi-discord" />
  <path
     d="M22,24L16.75,19L17.38,21H4.5A2.5,2.5 0 0,1 2,18.5V3.5A2.5,2.5 0 0,1 4.5,1H19.5A2.5,2.5 0 0,1 22,3.5V24M12,6.8C9.32,6.8 7.44,7.95 7.44,7.95C8.47,7.03 10.27,6.5 10.27,6.5L10.1,6.33C8.41,6.36 6.88,7.53 6.88,7.53C5.16,11.12 5.27,14.22 5.27,14.22C6.67,16.03 8.75,15.9 8.75,15.9L9.46,15C8.21,14.73 7.42,13.62 7.42,13.62C7.42,13.62 9.3,14.9 12,14.9C14.7,14.9 16.58,13.62 16.58,13.62C16.58,13.62 15.79,14.73 14.54,15L15.25,15.9C15.25,15.9 17.33,16.03 18.73,14.22C18.73,14.22 18.84,11.12 17.12,7.53C17.12,7.53 15.59,6.36 13.9,6.33L13.73,6.5C13.73,6.5 15.53,7.03 16.56,7.95C16.56,7.95 14.68,6.8 12,6.8M9.93,10.59C10.58,10.59 11.11,11.16 11.1,11.86C11.1,12.55 10.58,13.13 9.93,13.13C9.29,13.13 8.77,12.55 8.77,11.86C8.77,11.16 9.28,10.59 9.93,10.59M14.1,10.59C14.75,10.59 15.27,11.16 15.27,11.86C15.27,12.55 14.75,13.13 14.1,13.13C13.46,13.13 12.94,12.55 12.94,11.86C12.94,11.16 13.45,10.59 14.1,10.59Z"
     id="path2"
     style="fill:#89d2dc;fill-opacity:1" />
</svg>
