<svg width="77" height="86" viewBox="0 0 77 86" fill="none" xmlns="http://www.w3.org/2000/svg">
<path d="M0.104004 0.356842L6.84566 76.9089L38.3067 85.9151L69.7678 76.9089C72.015 51.3923 74.2623 25.8735 76.5095 0.356842H0.104004ZM5.01102 4.85991H71.6025L65.5631 73.4305L38.3067 81.2317L11.0504 73.4305L5.01102 4.85991ZM21.5667 18.3691L19.4073 45.3875H48.5992L47.6775 56.6451L38.3067 58.0392L29.0501 56.6451L28.6419 52.1421H19.9691L20.8469 63.3997L38.2848 67.9028L55.7446 63.3997L57.9699 36.3814H29.5198L30.2396 27.3752H49.0249L49.5428 31.8783H57.8558L56.2845 18.3691H21.5667Z" fill="white"/>
</svg>
