<svg width="87" height="87" viewBox="0 0 87 87" fill="none" xmlns="http://www.w3.org/2000/svg">
<path d="M6.01662 0.958923C3.03999 0.958923 0.580688 3.41822 0.580688 6.39486V81.0971C0.580688 84.0738 3.03999 86.5331 6.01662 86.5331H80.7189C83.6955 86.5331 86.1548 84.0817 86.1548 81.0971V6.39486C86.1548 3.41822 83.7035 0.958923 80.7189 0.958923H6.01662ZM6.01662 5.03388H80.7189C81.475 5.03388 82.0799 5.63876 82.0799 6.39486V81.0971C82.0799 81.8532 81.475 82.4581 80.7189 82.4581H6.01662C5.26052 82.4581 4.65565 81.8532 4.65565 81.0971V6.39486C4.65565 5.63876 5.26052 5.03388 6.01662 5.03388ZM39.2928 39.671V65.2907C39.2928 69.2224 37.8045 70.2332 35.2178 70.2332C32.5118 70.2332 30.6335 68.5459 29.3919 66.3572L22.993 70.2332C24.8474 74.157 29.3919 78.3831 35.6954 78.3831C42.6674 78.3831 47.4427 74.6743 47.4427 66.5323V39.671H39.2928ZM64.6658 39.671C57.7256 39.671 53.2766 44.1121 53.2766 49.946C53.2766 56.2733 57.0093 59.2659 62.6203 61.6535L64.5623 62.4892C68.104 64.0412 69.855 64.9883 69.855 67.6545C69.855 69.8751 68.1677 71.4828 64.9443 71.4828C61.1082 71.4828 59.2935 68.8802 57.6301 66.1583L51.5177 70.2332C53.8019 74.7459 57.9007 78.3831 65.1194 78.3831C72.5053 78.3831 78.0049 74.547 78.0049 67.5511C78.0049 61.0566 74.2801 58.1675 67.6663 55.3342L65.7243 54.5064C62.3895 53.0579 60.941 52.1188 60.941 49.7868C60.941 47.9005 62.3895 46.452 64.6658 46.452C66.9022 46.452 68.3348 47.3991 69.664 49.7868L75.7207 45.9029C73.1659 41.3902 69.6083 39.671 64.6658 39.671Z" fill="white"/>
</svg>
