<svg width="87" height="87" viewBox="0 0 87 87" fill="none" xmlns="http://www.w3.org/2000/svg">
<path d="M63.5494 0.958893C62.3647 0.958893 61.2593 1.40987 60.4326 2.15232C60.4207 2.16383 60.2598 2.32269 60.1991 2.38955C60.137 2.45797 60.054 2.5553 59.9436 2.67787C59.7228 2.92301 59.403 3.27466 59.002 3.72167C58.2 4.61568 57.0654 5.88594 55.7064 7.40414C52.9884 10.4406 49.3798 14.4756 45.7757 18.5063L32.5677 33.28C29.2775 30.608 25.6028 27.6256 22.9801 25.4954C20.4911 23.4737 18.4129 21.7857 16.9473 20.5939C16.2145 19.998 15.6349 19.5251 15.2356 19.1998C15.036 19.0371 14.8812 18.9101 14.7757 18.8238C14.73 18.7864 14.6958 18.7612 14.6699 18.7399L14.6662 18.7363H14.6626C14.0042 18.1457 13.1167 17.7764 12.1626 17.7764C11.4356 17.7764 11.2405 17.9235 10.8706 18.0574C10.5008 18.1913 10.0997 18.3608 9.65895 18.5574C8.77748 18.9508 7.74934 19.4563 6.75384 19.9589C4.76286 20.9641 2.91078 21.9625 2.91078 21.9625L2.92173 21.9844C1.75932 22.6228 0.950928 23.8481 0.950928 25.2509V64.4917C0.950928 65.9562 1.82905 67.2317 3.07501 67.8421L3.06771 67.8567C3.06771 67.8567 4.78408 68.7316 6.58961 69.6413C7.49238 70.0962 8.41957 70.5599 9.16625 70.9297C9.91294 71.2995 10.33 71.5181 10.7611 71.6924C11.1921 71.867 11.6705 71.9662 12.1626 71.9662C12.8204 71.9662 13.4566 71.7863 14.002 71.4771L14.0057 71.4808C14.0057 71.4808 14.1768 71.3694 14.1991 71.353C14.2214 71.3366 14.2337 71.331 14.2429 71.3238C14.2613 71.3096 14.2692 71.2991 14.2794 71.291C14.2997 71.2747 14.3187 71.2621 14.3414 71.2435C14.3868 71.2064 14.4476 71.1571 14.5239 71.0939C14.6766 70.9675 14.8944 70.7868 15.1699 70.5574C15.7209 70.0985 16.499 69.4469 17.4327 68.6669C19.3 67.1068 21.7802 65.0318 24.2575 62.9589C28.5417 59.3739 31.7373 56.6976 32.8159 55.7946C39.5823 63.139 46.3548 70.4898 51.4582 76.0245C54.0782 78.866 56.2713 81.2432 57.8195 82.9187C58.5936 83.7564 59.2068 84.4188 59.6334 84.8786C59.8467 85.1084 60.0113 85.2885 60.1297 85.4151C60.1889 85.4783 60.2382 85.5251 60.2757 85.5647C60.3133 85.6042 60.1958 85.5103 60.4399 85.7289L60.4436 85.7326C61.2672 86.4661 62.3686 86.9151 63.5494 86.9151C64.2422 86.9151 64.8967 86.7503 65.491 86.4734L65.4983 86.488C65.4983 86.488 69.9925 84.1631 74.5531 81.7983C76.8334 80.6158 79.1301 79.4229 80.8925 78.5063C81.7737 78.048 82.5219 77.6567 83.0677 77.3713C83.6135 77.0858 83.8323 76.9777 84.0823 76.8348C85.772 75.868 86.9071 74.0362 86.9071 71.9662V15.9078C86.9071 13.9866 85.9276 12.2682 84.4363 11.2618C84.1827 11.0901 84.1567 11.0921 83.9801 10.9954C83.8034 10.8986 83.5733 10.7755 83.294 10.6268C82.7352 10.3293 81.9774 9.92909 81.0859 9.46254C79.303 8.52943 76.9863 7.32543 74.6881 6.13407C70.0931 3.75212 65.575 1.4224 65.575 1.4224H65.5713C64.9568 1.12778 64.2665 0.958893 63.5494 0.958893ZM63.5494 4.69612C63.754 4.69612 63.9196 4.75064 64.0713 4.85305C64.3226 5.02308 64.4837 5.29257 64.4837 5.63042V24.3786L43.3852 42.0647C42.2881 41.1741 42.2825 41.17 41.1772 40.2727C39.1067 38.5919 37.4943 37.2828 35.4728 35.6414C36.6046 34.3744 42.0064 28.3252 48.5604 20.9954C52.1642 16.9649 55.774 12.9286 58.491 9.8932C59.8496 8.37549 60.9864 7.11007 61.7867 6.21801C62.1868 5.77199 62.4999 5.41925 62.7173 5.17787C62.8156 5.06881 62.8883 4.98708 62.9436 4.92604C63.1053 4.78545 63.3052 4.69612 63.5494 4.69612ZM68.221 6.99904C69.9448 7.88894 70.5759 8.21101 72.9691 9.45159C75.2651 10.6418 77.5815 11.8477 79.356 12.7764C80.2433 13.2408 80.9944 13.6363 81.5385 13.926C81.8105 14.0709 82.0308 14.1886 82.1845 14.2728C82.3381 14.3569 82.5205 14.4779 82.3414 14.3567H82.345V14.3603C82.8419 14.6957 83.1699 15.2503 83.1699 15.9078V71.9662C83.1699 72.6766 82.7884 73.2677 82.2246 73.5902C82.3381 73.5253 81.8753 73.778 81.3341 74.061C80.7929 74.344 80.0498 74.7312 79.1699 75.1888C77.4101 76.104 75.11 77.2987 72.8305 78.4808C70.5078 79.6852 69.9228 79.9865 68.221 80.8676V6.99904ZM12.2137 21.5574C12.228 21.5687 12.2613 21.5972 12.2794 21.6122C12.3118 21.6389 12.3526 21.6734 12.4071 21.718C12.5163 21.8073 12.6736 21.9341 12.8743 22.0976C13.2755 22.4246 13.8526 22.8954 14.586 23.4917C16.0526 24.6843 18.1332 26.3749 20.6224 28.3968C25.601 32.4407 32.2176 37.8118 38.8232 43.1742C51.6693 53.6026 63.7852 63.4358 64.4837 64.0027V82.2435C64.4837 82.604 64.2939 82.8898 64.0129 83.0464L63.8816 83.1158C63.7786 83.1525 63.669 83.1778 63.5494 83.1778C63.3032 83.1778 63.1049 83.0916 62.9399 82.9479C62.9155 82.9219 62.8959 82.8991 62.8597 82.8603C62.7477 82.7407 62.5822 82.5627 62.3706 82.3348C61.9475 81.8788 61.3372 81.219 60.564 80.3822C59.0176 78.7087 56.8259 76.3327 54.2064 73.4917C48.9672 67.8098 42.0123 60.2636 35.064 52.7216C28.1158 45.1797 21.174 37.6433 15.9582 31.9844C13.3503 29.155 11.1743 26.7951 9.64435 25.1377C8.98311 24.4214 8.50359 23.9053 8.10056 23.4698C8.27055 23.3831 8.26325 23.382 8.43633 23.2946C9.40241 22.8069 10.3977 22.3193 11.1808 21.9698C11.5724 21.7951 11.9159 21.6547 12.1444 21.572C12.1736 21.5614 12.185 21.5648 12.2137 21.5574ZM4.68815 25.2837C4.79394 25.3973 4.93143 25.5449 5.11881 25.7472C5.53181 26.1932 6.13554 26.8426 6.89983 27.6706C7.722 28.5612 9.13134 30.0911 10.294 31.353V58.2143L4.69545 64.4808C4.69186 64.4866 4.68815 64.4917 4.68815 64.4917V25.2837ZM64.4837 29.2545V59.1888C62.4894 57.5703 55.0692 51.5468 46.3414 44.4625L64.4837 29.2545ZM14.0312 35.4078C16.4009 37.9789 19.6094 41.4636 22.4765 44.5757L14.0312 54.0282V35.4078ZM25.0203 47.3348C26.8631 49.3352 28.3719 50.9759 30.2794 53.0465C29.1169 54.0198 26.0737 56.5677 21.8597 60.0939C19.3828 62.1665 16.9044 64.2394 15.0385 65.7983C14.1056 66.5777 13.3275 67.2286 12.7794 67.6851C12.5053 67.9134 12.2878 68.0925 12.1407 68.2143L12.1371 68.218C12.1961 68.2403 11.5421 67.9353 10.8232 67.5793C10.0906 67.2165 9.17067 66.7584 8.27209 66.3056C8.20277 66.2706 8.20604 66.271 8.13706 66.2362L25.0203 47.3348ZM12.1808 68.218L13.0422 69.7581L12.159 68.2326L12.1626 68.2289L12.1808 68.218Z" fill="white"/>
</svg>
