<svg width="87" height="87" viewBox="0 0 87 87" fill="none" xmlns="http://www.w3.org/2000/svg">
<path d="M43.055 0.958893C26.6082 0.958893 12.2918 10.2504 5.06709 23.8605C5.04393 23.9068 5.01498 23.9589 4.99762 24.011C1.85994 29.9737 0.0769043 36.7469 0.0769043 43.937C0.0769043 62.5778 12.0082 78.4804 28.6344 84.42C28.6923 84.4431 28.7502 84.4605 28.8081 84.4779C33.2715 86.0525 38.0648 86.9151 43.055 86.9151C66.7497 86.9151 86.0331 67.6316 86.0331 43.937C86.0331 35.0392 83.3122 26.7666 78.6636 19.9007C78.5536 19.6692 78.4378 19.455 78.3046 19.2466C78.0384 18.824 77.7142 18.4419 77.3668 18.0888C69.511 7.69159 57.0588 0.958893 43.055 0.958893ZM43.055 3.9229C54.1411 3.9229 64.1793 8.45574 71.4388 15.7558C70.912 15.7616 70.3794 15.7963 69.841 15.8889C66.0608 16.5431 63.1894 19.316 62.3384 23.1137C61.4063 27.2702 63.062 30.5063 64.6598 33.6324C66.3039 36.8338 67.8612 39.8673 66.657 43.827L61.1864 57.8539L49.6545 27.6349H51.947C52.7691 27.6349 53.429 26.975 53.429 26.1529C53.429 25.3309 52.7691 24.6709 51.947 24.6709H31.199C30.3769 24.6709 29.717 25.3309 29.717 26.1529C29.717 26.975 30.3769 27.6349 31.199 27.6349H34.134L39.4715 41.3261L33.0283 57.8539L21.4965 27.6349H25.271C26.093 27.6349 26.753 26.975 26.753 26.1529C26.753 25.3309 26.093 24.6709 25.271 24.6709H8.00214V24.6651C14.8217 12.3113 27.9744 3.9229 43.055 3.9229ZM43.0723 8.36891C42.2503 8.36891 41.5903 9.02886 41.5903 9.85091V12.8149C41.5903 13.637 42.2503 14.2969 43.0723 14.2969C43.8944 14.2969 44.5544 13.637 44.5544 12.8149V9.85091C44.5544 9.02886 43.8944 8.36891 43.0723 8.36891ZM35.0313 9.46883C34.8403 9.43989 34.6377 9.45146 34.4408 9.50356C33.6535 9.71776 33.1788 10.5282 33.393 11.3155L34.163 14.1811C34.3366 14.8469 34.9387 15.2811 35.5929 15.2811C35.7202 15.2811 35.8476 15.2637 35.9749 15.229C36.7681 15.0206 37.237 14.2043 37.0286 13.417L36.2528 10.5514C36.0965 9.95511 35.6044 9.54409 35.0313 9.46883ZM51.1192 9.46883C50.546 9.54988 50.0482 9.95511 49.8861 10.5514L49.1219 13.417C48.9077 14.2043 49.3824 15.0206 50.1698 15.229C50.2971 15.2637 50.4245 15.2811 50.5576 15.2811C51.206 15.2811 51.8081 14.8469 51.9875 14.1811L52.7517 11.3155C52.9659 10.5282 52.4912 9.71776 51.7039 9.50356C51.507 9.45146 51.3102 9.43989 51.1192 9.46883ZM26.9556 12.6528C26.7645 12.676 26.5735 12.7339 26.3998 12.8381C25.6878 13.2491 25.4504 14.1522 25.8556 14.8585L27.3377 17.423C27.6155 17.9035 28.1134 18.164 28.6286 18.164C28.8775 18.164 29.1323 18.1061 29.3638 17.973C30.0759 17.562 30.319 16.6531 29.908 15.941L28.426 13.3765C28.1192 12.8497 27.5287 12.5776 26.9556 12.6528ZM59.1891 12.6528C58.616 12.5776 58.0255 12.8497 57.7187 13.3822L56.2367 15.9468C55.8315 16.6531 56.0688 17.562 56.7809 17.973C57.0124 18.1061 57.2672 18.1698 57.5219 18.1698C58.0371 18.1698 58.535 17.9035 58.8071 17.4288L60.2891 14.8642C60.7001 14.1522 60.4511 13.2491 59.7449 12.8381C59.5654 12.7339 59.3802 12.676 59.1891 12.6528ZM71.7283 18.714C73.0655 18.7661 74.2755 19.235 75.1322 20.0455C75.4391 20.4507 75.7285 20.8675 76.0122 21.2843C78.2178 26.014 73.8876 39.7109 70.4778 47.5551L57.7824 80.1303L45.0812 47.5551C45.0754 47.5494 45.0696 47.5436 45.0696 47.532C45.0233 47.422 44.9422 47.3236 44.8728 47.2252C44.8322 47.1731 44.7975 47.0978 44.7454 47.0457C44.6933 46.9936 44.6122 46.9589 44.5486 46.9068C44.4559 46.8431 44.3691 46.7736 44.2649 46.7331C44.2591 46.7273 44.2533 46.7157 44.2417 46.7157C44.1723 46.6868 44.097 46.6926 44.0275 46.6752C43.9176 46.652 43.8134 46.6173 43.7034 46.6173C43.5934 46.6173 43.4834 46.652 43.3792 46.6752C43.3039 46.6926 43.2344 46.6868 43.165 46.7157C43.1534 46.7157 43.1476 46.7273 43.1418 46.7331C43.0318 46.7736 42.9392 46.8489 42.8466 46.9183C42.7829 46.9647 42.7076 46.9936 42.6555 47.0457C42.6034 47.1036 42.5745 47.1731 42.5282 47.231C42.4587 47.3294 42.3834 47.422 42.3371 47.5262C42.3313 47.5378 42.3256 47.5436 42.3198 47.5551L29.6243 80.1303L9.15417 27.6349H18.3241L31.6331 62.4967C31.6389 62.5083 31.6505 62.5199 31.6563 62.5315C31.6737 62.5778 31.6968 62.6125 31.72 62.653C31.7837 62.7688 31.8531 62.873 31.94 62.9714C31.9805 63.012 32.021 63.0467 32.0615 63.0872C32.16 63.1683 32.2757 63.2377 32.3973 63.2956C32.4262 63.313 32.4436 63.3362 32.4783 63.3477C32.4957 63.3535 32.5073 63.3477 32.5247 63.3593C32.681 63.4114 32.8488 63.4519 33.0167 63.4519C33.1846 63.4519 33.3467 63.4114 33.4972 63.3593C33.5146 63.3535 33.5262 63.3593 33.5435 63.3477C33.5783 63.3362 33.6014 63.313 33.6304 63.2956C33.7519 63.2435 33.8619 63.1741 33.9604 63.0872C34.0067 63.0525 34.0472 63.0178 34.0877 62.9714C34.1745 62.8846 34.244 62.7746 34.3077 62.6588C34.3308 62.6183 34.3598 62.5836 34.3772 62.5373C34.383 62.5257 34.3887 62.5141 34.3945 62.5025L42.4124 41.9455C42.4182 41.9282 42.424 41.9166 42.4298 41.8992L42.4471 41.8645C42.4587 41.824 42.4529 41.7776 42.4645 41.7371C42.505 41.5982 42.5398 41.465 42.5398 41.3203C42.5398 41.2219 42.5108 41.1293 42.4877 41.0309C42.4703 40.9498 42.4761 40.8746 42.4471 40.7935L37.318 27.6349H46.4821L59.797 62.4967C59.8028 62.5083 59.8086 62.5199 59.8144 62.5315C59.8317 62.5778 59.8607 62.6125 59.8838 62.653C59.9417 62.7688 60.0112 62.873 60.098 62.9714C60.1385 63.012 60.1791 63.0467 60.2196 63.0872C60.3238 63.1683 60.4338 63.2377 60.5554 63.2956C60.5843 63.313 60.6017 63.3362 60.6364 63.3477C60.6538 63.3535 60.6653 63.3535 60.6827 63.3593C60.839 63.4114 61.0069 63.4519 61.1806 63.4519C61.1864 63.4519 61.1864 63.4461 61.1922 63.4461C61.2674 63.4461 61.3427 63.4172 61.4179 63.4056C61.5105 63.3883 61.609 63.3883 61.7016 63.3535C61.719 63.3477 61.719 63.3419 61.7363 63.3362C61.8405 63.2956 61.9274 63.2204 62.02 63.1567C62.0837 63.1046 62.1647 63.0699 62.2226 63.0178C62.2747 62.9599 62.3094 62.8904 62.35 62.8267C62.4194 62.7283 62.4947 62.6415 62.5352 62.5373C62.541 62.5257 62.5526 62.5199 62.5584 62.5083L69.4532 44.7995C71.0452 39.5836 69.0595 35.6991 67.3054 32.2778C65.8176 29.3775 64.5382 26.8708 65.2329 23.7621C65.8234 21.1164 67.7396 19.2639 70.3563 18.8124C70.8194 18.7256 71.2825 18.6966 71.7283 18.714ZM79.4509 27.3455C81.7665 32.4051 83.0691 38.0205 83.0691 43.937C83.0691 59.4806 74.1539 72.975 61.169 79.5977L73.2218 48.684C73.9339 47.0341 78.623 35.9712 79.4509 27.3455ZM6.23069 28.2833L26.533 80.3618C12.6913 74.0633 3.04091 60.1116 3.04091 43.937C3.04091 38.3853 4.17557 33.094 6.23069 28.2833ZM43.7034 52.1806L55.3336 82.0117C51.4607 83.2679 47.3389 83.951 43.055 83.951C39.1937 83.951 35.4655 83.3895 31.9342 82.3706L43.7034 52.1806Z" fill="white"/>
</svg>
