<svg width="80" height="88" viewBox="0 0 80 88" fill="none" xmlns="http://www.w3.org/2000/svg">
<path d="M39.4143 0.561595C39.3993 0.562104 39.3846 0.566172 39.3696 0.567151C39.3324 0.569546 39.2975 0.581278 39.2604 0.586595C39.1198 0.606679 38.9854 0.647368 38.8547 0.708815C38.8322 0.719366 38.807 0.716437 38.7848 0.728259L1.5371 20.6391C1.41783 20.7032 1.3124 20.7836 1.21812 20.8752C1.1985 20.8942 1.18626 20.919 1.16776 20.9391C1.07416 21.041 0.998579 21.1544 0.938317 21.2779C0.917917 21.3195 0.89867 21.3592 0.882356 21.4029C0.824757 21.5572 0.78489 21.7167 0.784424 21.8863V21.889V21.8918V64.5578C0.784424 64.6833 0.803003 64.8091 0.834789 64.9273C0.87774 65.0853 0.953969 65.2297 1.04744 65.3634C1.0693 65.3948 1.09287 65.4225 1.11739 65.4523C1.22179 65.5788 1.34057 65.6941 1.48673 65.78C1.4893 65.7815 1.49255 65.7813 1.49513 65.7828L1.50073 65.7884L38.7316 87.113L38.7372 87.1158L38.7428 87.1186L38.7484 87.1214C38.8132 87.1584 38.8824 87.1787 38.9499 87.2047C38.9975 87.2231 39.0435 87.2499 39.0926 87.263H39.0954C39.2174 87.2955 39.3389 87.313 39.4619 87.313H39.4647C39.5863 87.313 39.7096 87.2967 39.8284 87.2658C39.8527 87.2595 39.8745 87.2456 39.8984 87.238C39.9875 87.2097 40.0774 87.1785 40.1614 87.1325L78.8417 65.7995C78.8477 65.7962 78.8497 65.789 78.8557 65.7856C78.869 65.778 78.8845 65.7769 78.8977 65.7689C79.0293 65.6876 79.1394 65.5809 79.2362 65.4661C79.2613 65.4364 79.281 65.406 79.3034 65.3745C79.3886 65.2553 79.457 65.128 79.502 64.9884C79.5079 64.9702 79.5165 64.954 79.5216 64.9356C79.5556 64.8138 79.5776 64.6876 79.5776 64.5578V21.8918C79.5776 21.8819 79.5722 21.8739 79.572 21.864C79.5681 21.7071 79.5319 21.5573 79.4796 21.414C79.4613 21.3636 79.4419 21.3172 79.4181 21.2696C79.3602 21.1528 79.2877 21.0473 79.1998 20.9502C79.1782 20.9263 79.1643 20.8975 79.1411 20.8752C79.0421 20.7796 78.9317 20.6957 78.8053 20.6307L40.125 0.719926C40.0659 0.689451 40.0022 0.674989 39.9404 0.653261C39.9052 0.640821 39.8729 0.626843 39.8368 0.61715C39.6986 0.580084 39.556 0.55681 39.4143 0.561595ZM40.8973 4.31987L74.9888 21.8668L60.9761 28.825L40.8973 18.1947V4.31987ZM38.0321 4.36431V18.1947L17.9841 28.8084L5.22493 21.9002L38.0321 4.36431ZM39.4647 20.6613L57.9095 30.425L39.4647 40.1888L21.0199 30.425L39.4647 20.6613ZM76.7124 24.1946V62.2579L62.3863 55.1469V31.3028L76.7124 24.1946ZM3.64963 24.289L16.5431 31.2695V34.6916C16.5431 35.4781 17.1849 36.1138 17.9757 36.1138C18.7665 36.1138 19.4083 35.4781 19.4083 34.6916V32.7972L38.0321 42.6554V65.03L19.4083 55.1719V51.758C19.4083 50.9715 18.7665 50.3358 17.9757 50.3358C17.1849 50.3358 16.5431 50.9715 16.5431 51.758V55.1802L3.64963 62.1606V24.289ZM59.5211 32.7972V56.0246C59.5211 56.0957 59.5502 56.1564 59.5603 56.2246C59.5754 56.327 59.5851 56.4281 59.6219 56.5246C59.6547 56.6104 59.7081 56.681 59.7562 56.7579C59.8045 56.8362 59.8465 56.9146 59.9101 56.9829C59.9794 57.0574 60.064 57.1107 60.1479 57.169C60.2058 57.2094 60.2478 57.2645 60.313 57.2968L75.0755 64.6245L40.8973 83.4742V67.4022V42.6554L59.5211 32.7972ZM17.9757 38.9582C17.1849 38.9582 16.5431 39.5939 16.5431 40.3804V46.0692C16.5431 46.8557 17.1849 47.4914 17.9757 47.4914C18.7665 47.4914 19.4083 46.8557 19.4083 46.0692V40.3804C19.4083 39.5939 18.7665 38.9582 17.9757 38.9582ZM55.3772 55.8802C55.1917 55.8968 55.0071 55.9513 54.8316 56.0441C54.1339 56.4138 53.8673 57.2736 54.2412 57.9663L55.5899 60.4773C55.8477 60.9566 56.3432 61.2301 56.8546 61.2301C57.0809 61.2301 57.3126 61.1772 57.5289 61.0634C58.2266 60.6937 58.4904 59.8311 58.1165 59.1385L56.7679 56.6274C56.4885 56.109 55.9338 55.8304 55.3772 55.8802ZM17.9813 57.6413L38.0321 68.255V83.4298L5.14099 64.5912L17.9813 57.6413ZM49.4062 59.0412C49.2207 59.0576 49.0357 59.1103 48.8606 59.2024C48.1629 59.5721 47.8977 60.4347 48.2702 61.1273L49.6188 63.6384C49.8781 64.1177 50.3749 64.3912 50.8863 64.3912C51.1127 64.3912 51.3416 64.3368 51.5579 64.2245C52.2556 63.8547 52.5207 62.9921 52.1483 62.2995L50.7996 59.7885C50.5192 59.2701 49.9626 58.9922 49.4062 59.0412ZM43.4379 62.1995C43.2523 62.2161 43.0678 62.2706 42.8923 62.3634C42.1932 62.7332 41.9294 63.5958 42.3019 64.2884L43.6506 66.7967C43.9085 67.276 44.4039 67.5494 44.9153 67.5494C45.1417 67.5494 45.3733 67.4966 45.5896 67.3828C46.2873 67.013 46.5511 66.1504 46.1772 65.4578L44.8286 62.9467C44.5503 62.4283 43.9948 62.1497 43.4379 62.1995Z" fill="white"/>
</svg>
