<svg width="90" height="86" viewBox="0 0 90 86" fill="none" xmlns="http://www.w3.org/2000/svg">
<path d="M42.9417 0.356842C29.6212 0.356842 18.7834 15.7098 18.7834 34.5837C18.7834 44.0163 21.543 52.484 25.9227 58.6636C24.8762 60.0218 24.3584 61.6677 24.3584 63.3067C24.3584 65.1068 24.9506 66.9317 26.2203 68.3549C27.4901 69.7781 29.4688 70.7126 31.7917 70.7126C34.1146 70.7126 36.0933 69.7781 37.3631 68.3549C38.6328 66.9317 39.2251 65.1068 39.2251 63.3067C39.2251 61.5067 38.6328 59.6818 37.3631 58.2586C36.0933 56.8354 34.1146 55.9009 31.7917 55.9009C30.71 55.9009 29.7147 56.1192 28.8191 56.4795C24.9488 50.9348 22.5 43.2073 22.5 34.5837C22.5 17.752 31.6709 4.05978 42.9417 4.05978C53.012 4.05978 61.3824 15.0008 63.0568 29.333C64.3706 29.8311 65.6742 30.3925 66.9658 31.0109C65.7003 13.8108 55.4112 0.356842 42.9417 0.356842ZM39.2251 24.4259C36.9021 24.4259 34.9234 25.3605 33.6537 26.7836C32.3839 28.2068 31.7917 30.0318 31.7917 31.8318C31.7917 33.6318 32.3839 35.4567 33.6537 36.8799C34.9234 38.3031 36.9021 39.2377 39.2251 39.2377C41.548 39.2377 43.5267 38.3031 44.7964 36.8799C45.59 35.9904 46.0902 34.9379 46.3753 33.8388C53.0236 33.5539 60.4954 35.5109 67.365 39.6137C82.0347 48.3749 89.424 63.6524 83.836 73.667C81.8401 77.2422 78.3559 79.7803 73.764 81.0042C67.3304 82.7223 59.4279 81.666 51.885 78.2667C50.796 79.1388 49.6443 79.9639 48.4587 80.7619C54.6376 83.8705 61.1766 85.5171 67.2162 85.5171C69.8383 85.5171 72.3657 85.21 74.7258 84.5805C80.3138 83.0901 84.5887 79.9374 87.0845 75.4642C93.6332 63.7222 85.6443 46.2164 69.2742 36.4388C61.8854 32.0229 53.7676 29.8628 46.4479 30.0997C46.183 28.8998 45.6564 27.7475 44.7964 26.7836C43.5267 25.3605 41.548 24.4259 39.2251 24.4259ZM39.2251 28.1289C40.6188 28.1289 41.4276 28.5829 42.0162 29.2426C42.6048 29.9023 42.9417 30.8546 42.9417 31.8318C42.9417 32.809 42.6048 33.7612 42.0162 34.421C41.4276 35.0807 40.6188 35.5347 39.2251 35.5347C37.8313 35.5347 37.0225 35.0807 36.4339 34.421C35.8453 33.7612 35.5084 32.809 35.5084 31.8318C35.5084 30.8546 35.8453 29.9023 36.4339 29.2426C37.0225 28.5829 37.8313 28.1289 39.2251 28.1289ZM15.3679 39.8524C2.42649 49.9244 -3.32703 64.9849 2.51929 75.4642C5.01504 79.9374 9.28994 83.0865 14.878 84.5769C17.2399 85.2064 19.7654 85.5171 22.3875 85.5171C29.4492 85.5171 37.2014 83.2798 44.2556 79.0659C52.7217 74.0091 58.8187 66.8859 61.9207 59.564C64.0668 59.4615 65.9018 58.5851 67.0965 57.2461C68.3662 55.8229 68.9584 53.998 68.9584 52.1979C68.9584 50.3979 68.3662 48.573 67.0965 47.1498C65.8267 45.7266 63.848 44.7921 61.5251 44.7921C59.2022 44.7921 57.2234 45.7266 55.9537 47.1498C54.684 48.573 54.0917 50.3979 54.0917 52.1979C54.0917 53.998 54.684 55.8229 55.9537 57.2461C56.5708 57.9378 57.3628 58.5071 58.273 58.9167C55.3583 65.228 49.8459 71.4098 42.3428 75.8909C33.5158 81.1658 23.6077 83.0778 15.8362 81.0042C11.2423 79.7785 7.76174 77.2422 5.76775 73.667C1.04386 65.2002 5.61696 52.9899 15.9995 44.1158C15.73 42.7254 15.5203 41.3003 15.3679 39.8524ZM61.5251 48.495C62.9188 48.495 63.7276 48.9491 64.3162 49.6088C64.9048 50.2685 65.2418 51.2208 65.2418 52.1979C65.2418 53.1751 64.9048 54.1274 64.3162 54.7871C63.7276 55.4468 62.9188 55.9009 61.5251 55.9009C60.1313 55.9009 59.3225 55.4468 58.7339 54.7871C58.1454 54.1274 57.8084 53.1751 57.8084 52.1979C57.8084 51.2208 58.1454 50.2685 58.7339 49.6088C59.3225 48.9491 60.1313 48.495 61.5251 48.495ZM31.7917 59.6038C33.1855 59.6038 33.9943 60.0579 34.5828 60.7176C35.1714 61.3773 35.5084 62.3296 35.5084 63.3067C35.5084 64.2839 35.1714 65.2362 34.5828 65.8959C33.9943 66.5556 33.1855 67.0097 31.7917 67.0097C30.398 67.0097 29.5892 66.5556 29.0006 65.8959C28.412 65.2362 28.075 64.2839 28.075 63.3067C28.075 62.3296 28.412 61.3773 29.0006 60.7176C29.5892 60.0579 30.398 59.6038 31.7917 59.6038Z" fill="white"/>
</svg>
