<svg width="87" height="87" viewBox="0 0 87 87" fill="none" xmlns="http://www.w3.org/2000/svg">
<path d="M2.99634 0.958923C2.45599 0.958977 1.93778 1.17366 1.55569 1.55575C1.1736 1.93784 0.958916 2.45605 0.958862 2.9964V84.4956C0.958916 85.0359 1.1736 85.5541 1.55569 85.9362C1.93778 86.3183 2.45599 86.533 2.99634 86.5331H84.4955C85.0359 86.533 85.5541 86.3183 85.9362 85.9362C86.3183 85.5541 86.5329 85.0359 86.533 84.4956V2.9964C86.5329 2.45605 86.3183 1.93784 85.9362 1.55575C85.5541 1.17366 85.0359 0.958977 84.4955 0.958923H2.99634ZM5.03382 5.03388H82.458V82.4581H5.03382V5.03388ZM23.3711 39.671V46.6908H33.5585V78.3831H41.7085V46.6908H51.8958V39.671H23.3711ZM67.5669 39.6909C61.2209 39.6657 53.9691 41.5887 53.9691 50.519C53.9691 62.1938 69.6999 62.1966 69.6999 67.4635C69.6999 67.9627 69.9116 71.5902 64.3595 71.5902C58.8074 71.5902 54.1801 68.1002 54.1801 68.1002V76.5725C54.1801 76.5725 78.3871 84.402 78.3871 66.7472C78.385 55.2864 62.509 55.8596 62.509 50.1648C62.509 47.9583 64.0767 45.8949 68.4185 45.8949C72.7604 45.8949 76.6043 48.4577 76.6043 48.4577L76.8908 40.9086C76.8908 40.9086 72.5027 39.7106 67.5669 39.6909Z" fill="white"/>
</svg>
