<svg width="87" height="86" viewBox="0 0 87 86" fill="none" xmlns="http://www.w3.org/2000/svg">
<path d="M43.4329 4.05946C44.4815 4.05946 45.465 4.46444 46.2027 5.2093L81.1606 40.1672C82.6937 41.6931 82.6937 44.1808 81.1606 45.7067L46.2027 80.6647C45.465 81.4095 44.4815 81.8145 43.4329 81.8145C42.3843 81.8145 41.4008 81.4095 40.6632 80.6647L5.70524 45.7067C4.17213 44.1808 4.17213 41.6931 5.70524 40.1672L28.514 17.3585L32.7228 21.5674C31.7104 25.3278 32.73 29.4282 35.5793 32.2775C36.2591 32.9573 37.0329 33.543 37.879 34.0275V51.8536C34.509 53.799 32.3251 57.422 32.3251 61.4501C32.3251 67.5753 37.3077 72.5579 43.4329 72.5579C49.5582 72.5579 54.5408 67.5753 54.5408 61.4501C54.5408 57.422 52.3568 53.799 48.9869 51.8536V37.8314L51.2359 40.0805C50.2235 43.8409 51.2431 47.9413 54.0924 50.7906C56.1896 52.8878 58.981 54.0448 61.946 54.0448C64.911 54.0448 67.7024 52.8878 69.7996 50.7906C74.1314 46.4588 74.1314 39.4151 69.7996 35.0834C67.7097 32.9934 64.9399 31.8436 61.9822 31.8436C61.0059 31.8436 60.0296 31.9737 59.0895 32.2269L54.143 27.2804C55.1555 23.5199 54.1358 19.4196 51.2865 16.5703C49.1966 14.4803 46.4268 13.3305 43.4691 13.3305C42.4928 13.3305 41.5165 13.4606 40.5764 13.7138L36.3676 9.50492L40.6632 5.2093C41.4008 4.46444 42.3843 4.05946 43.4329 4.05946ZM43.4329 0.356842C41.4804 0.356842 39.5278 1.10171 38.0453 2.59143L31.1318 9.50492L39.6869 18.06C40.8512 17.3802 42.1601 17.0331 43.4691 17.0331C45.3493 17.0331 47.2295 17.749 48.6687 19.1881C51.1057 21.6252 51.4601 25.3278 49.7896 28.1627L58.2 36.5731C59.3643 35.8933 60.6732 35.5462 61.9822 35.5462C63.8624 35.5462 65.7427 36.2621 67.1818 37.7012C70.0744 40.5939 70.0744 45.28 67.1818 48.1727C65.7354 49.619 63.8407 50.3422 61.946 50.3422C60.0513 50.3422 58.1566 49.619 56.7103 48.1727C54.2732 45.7356 53.9189 42.033 55.5894 39.191L47.1789 30.7805C46.5787 31.1349 45.9423 31.3952 45.2842 31.5615V54.3052C48.4734 55.1296 50.8382 58.0006 50.8382 61.4501C50.8382 65.5432 47.5261 68.8553 43.4329 68.8553C39.347 68.8553 36.0277 65.5432 36.0277 61.4501C36.0277 58.0006 38.3924 55.1296 41.5816 54.3052V31.5615C40.345 31.2434 39.1662 30.6287 38.1972 29.6596C35.7601 27.2225 35.4058 23.5199 37.0763 20.6851L28.514 12.1228L3.08737 37.5494C0.10792 40.5216 0.10792 45.3524 3.08737 48.3246L38.0453 83.2825C39.5278 84.7722 41.4804 85.5171 43.4329 85.5171C45.3855 85.5171 47.338 84.7722 48.8205 83.2825L83.7785 48.3246C86.7579 45.3524 86.7579 40.5216 83.7785 37.5494L48.8205 2.59143C47.338 1.10171 45.3855 0.356842 43.4329 0.356842Z" fill="white"/>
</svg>
