<svg width="95" height="87" viewBox="0 0 95 87" fill="none" xmlns="http://www.w3.org/2000/svg">
<path d="M67.2029 0.965345C65.6143 0.911929 63.9515 1.18889 62.2843 1.7294C58.9499 2.81042 55.4559 4.91706 51.8701 7.83388C50.4648 8.97698 49.0468 10.2837 47.624 11.6701C46.2326 10.3189 44.8437 9.04328 43.4695 7.92541C39.8866 5.01092 36.402 2.90745 33.0751 1.82889C29.7483 0.750317 26.4381 0.716896 23.7194 2.28652C21.0008 3.85615 19.375 6.73748 18.6456 10.1579C17.9163 13.5783 17.9927 17.6515 18.7252 22.2116C18.9797 23.7956 19.3466 25.4573 19.7599 27.1501C18.2064 27.6209 16.6979 28.1159 15.2989 28.6623C11.0771 30.3113 7.58374 32.284 5.0399 34.6315C2.49606 36.979 0.853516 39.8281 0.853516 42.9565C0.853516 46.085 2.49606 48.9301 5.0399 51.2776C7.58374 53.625 11.0771 55.6018 15.2989 57.2507C16.7948 57.835 18.4143 58.361 20.0862 58.8584C19.4848 61.1054 18.9976 63.2859 18.6655 65.3529C17.9324 69.9167 17.855 73.9904 18.586 77.4186C19.3169 80.8467 20.9436 83.7444 23.6757 85.3218C26.4078 86.8992 29.7328 86.8604 33.0672 85.7794C36.4015 84.6984 39.8917 82.5957 43.4774 79.6789C44.8698 78.5463 46.2781 77.2543 47.6877 75.8825C49.1039 77.2618 50.5193 78.5612 51.9178 79.6988C55.5007 82.6133 58.9893 84.7168 62.3162 85.7953C65.643 86.8739 68.9492 86.9073 71.6679 85.3377C74.3865 83.7681 76.0123 80.8867 76.7417 77.4663C77.471 74.0459 77.3907 69.9727 76.6581 65.4126C76.3251 63.34 75.8376 61.1563 75.2335 58.9022C76.9606 58.3927 78.6313 57.8525 80.172 57.2507C84.3938 55.6018 87.8871 53.625 90.431 51.2776C92.9748 48.9301 94.6174 46.085 94.6174 42.9565C94.6174 39.8281 92.9748 36.979 90.431 34.6315C87.8871 32.284 84.3938 30.3113 80.172 28.6623C78.7529 28.1081 77.2212 27.6066 75.6433 27.1302C76.06 25.427 76.43 23.7534 76.686 22.1599C77.4191 17.5961 77.4965 13.5184 76.7655 10.0902C76.0346 6.66207 74.404 3.76841 71.6718 2.19102C70.3058 1.40232 68.7915 1.01876 67.2029 0.965345ZM67.0159 5.11193C68.0127 5.13919 68.8632 5.37641 69.5906 5.7964C71.0455 6.63637 72.1208 8.27117 72.6946 10.9617C73.2683 13.6523 73.2484 17.2875 72.5712 21.5033C72.3393 22.9467 72.0026 24.4765 71.6201 26.0439C67.4536 25.0411 62.8881 24.2966 58.0223 23.8591C55.5779 20.4724 53.0654 17.3915 50.533 14.6547C51.8719 13.3477 53.2021 12.1253 54.5005 11.0692C57.8129 8.37476 60.9487 6.54136 63.5657 5.69293C64.8742 5.26872 66.019 5.08468 67.0159 5.11193ZM28.3515 5.12387C29.3542 5.09588 30.5014 5.27944 31.8137 5.70487C34.4381 6.55575 37.5795 8.38833 40.8948 11.0851C42.1668 12.1198 43.4678 13.3155 44.7787 14.591C42.228 17.3495 39.6979 20.4627 37.2376 23.879C32.3891 24.3246 27.84 25.0762 23.6916 26.0836C23.3115 24.5237 22.9793 23.0001 22.7485 21.563C22.0706 17.3435 22.0537 13.7038 22.6291 11.0055C23.2044 8.30718 24.2886 6.66403 25.7569 5.8163C26.4911 5.39243 27.3489 5.15186 28.3515 5.12387ZM47.6877 17.5875C49.3472 19.3935 51.0078 21.3705 52.654 23.497C51.0362 23.4295 49.3986 23.3896 47.7354 23.3896C46.0392 23.3896 44.3704 23.4308 42.7213 23.501C44.3682 21.3726 46.0275 19.3951 47.6877 17.5875ZM47.7354 27.5043C50.5062 27.5043 53.2068 27.6182 55.8336 27.8107C57.6411 30.4068 59.4074 33.1609 61.0905 36.076C62.5693 38.6375 63.9076 41.1949 65.1256 43.7206C63.8947 46.2797 62.534 48.8718 61.0348 51.4686C59.715 53.7544 58.3368 55.9255 56.9359 58.0187C53.9687 58.2668 50.8941 58.4048 47.7354 58.4048C44.5007 58.4048 41.357 58.2586 38.324 57.9989C36.9465 55.9357 35.5915 53.7935 34.2929 51.5442C32.797 48.9533 31.4429 46.37 30.2139 43.8161C31.448 41.2478 32.8083 38.6461 34.3127 36.0402C35.987 33.1404 37.7481 30.4022 39.5457 27.8187C42.2008 27.6218 44.9328 27.5043 47.7354 27.5043ZM61.0825 28.3201C64.4398 28.7391 67.592 29.3213 70.5258 30.0193C69.6549 32.8741 68.5822 35.856 67.2825 38.9333C66.4386 37.3065 65.5646 35.6742 64.6203 34.0386C63.4764 32.0574 62.2872 30.1657 61.0825 28.3201ZM34.1735 28.3519C32.9936 30.1639 31.8326 32.0169 30.7113 33.959C29.7549 35.6156 28.8627 37.2699 28.0093 38.9174C26.7208 35.8586 25.6546 32.8937 24.7899 30.0551C27.7029 29.3556 30.8381 28.7758 34.1735 28.3519ZM74.5569 31.1017C76.0013 31.5387 77.3962 31.9948 78.6757 32.4945C82.5676 34.0146 85.6461 35.8146 87.6414 37.6559C89.6367 39.4972 90.5026 41.2531 90.5026 42.9565C90.5026 44.66 89.6367 46.4159 87.6414 48.2572C85.6461 50.0984 82.5676 51.8984 78.6757 53.4185C77.2538 53.9738 75.6916 54.4774 74.0675 54.9546C72.9089 51.3711 71.4301 47.6326 69.6702 43.8161C71.6937 39.4344 73.3284 35.1622 74.5569 31.1017ZM20.8463 31.1216C22.0607 35.1415 23.6745 39.3715 25.6694 43.7086C23.8979 47.5474 22.4118 51.3071 21.2482 54.9108C19.6813 54.4462 18.172 53.9563 16.7952 53.4185C12.9033 51.8984 9.82477 50.0984 7.82949 48.2572C5.83422 46.4159 4.96827 44.66 4.96827 42.9565C4.96827 41.2531 5.83422 39.4972 7.82949 37.6559C9.82477 35.8146 12.9033 34.0146 16.7952 32.4945C18.055 32.0025 19.4265 31.5529 20.8463 31.1216ZM47.7354 33.5969C42.1332 33.5969 37.548 38.182 37.548 43.7842C37.548 49.3865 42.1332 53.9716 47.7354 53.9716C53.3377 53.9716 57.9228 49.3865 57.9228 43.7842C57.9228 38.182 53.3377 33.5969 47.7354 33.5969ZM47.7354 37.6718C51.1354 37.6718 53.8479 40.3843 53.8479 43.7842C53.8479 47.1842 51.1354 49.8967 47.7354 49.8967C44.3355 49.8967 41.623 47.1842 41.623 43.7842C41.623 40.3843 44.3355 37.6718 47.7354 37.6718ZM67.3342 48.5994C68.4028 51.1283 69.3316 53.603 70.1119 55.9892C67.6616 56.5574 65.0526 57.0361 62.3082 57.4139C63.0982 56.1533 63.8784 54.8693 64.6402 53.5498C65.5951 51.8958 66.482 50.244 67.3342 48.5994ZM28.057 48.6034C28.9138 50.2582 29.8062 51.9174 30.7671 53.5817C31.5193 54.8845 32.2874 56.1566 33.0672 57.4019C30.3309 57.0225 27.7299 56.5421 25.2873 55.9733C26.0641 53.5943 26.9934 51.1249 28.057 48.6034ZM24.1134 59.9289C27.8009 60.8024 31.7977 61.4735 36.0359 61.9107C38.8656 66.0035 41.8118 69.6792 44.7787 72.8939C43.4523 74.1872 42.1376 75.401 40.851 76.4476C37.5386 79.142 34.3988 80.9714 31.7818 81.8198C29.1649 82.6683 27.2118 82.5564 25.7569 81.7164C24.3021 80.8764 23.2306 79.2416 22.6569 76.5511C22.0832 73.8605 22.0991 70.2293 22.7763 66.0135C23.0836 64.101 23.5427 62.0531 24.1134 59.9289ZM71.2898 59.9448C71.8649 62.0808 72.326 64.1383 72.6349 66.0612C73.3127 70.2807 73.3296 73.9164 72.7543 76.6147C72.1789 79.313 71.0987 80.9602 69.6304 81.8079C68.1621 82.6556 66.1942 82.7702 63.5697 81.9193C60.9452 81.0685 57.8038 79.2319 54.4886 76.5351C53.1927 75.481 51.8689 74.2614 50.533 72.9576C53.5192 69.7307 56.4874 66.0351 59.3355 61.9186C63.5844 61.4843 67.5923 60.8173 71.2898 59.9448ZM41.3524 62.3285C43.4444 62.4425 45.564 62.5195 47.7354 62.5195C49.8351 62.5195 51.8859 62.4471 53.9115 62.3404C51.8409 65.1342 49.7302 67.674 47.628 69.9611C45.5271 67.6691 43.4204 65.1247 41.3524 62.3285Z" fill="white"/>
</svg>
