<?xml version="1.0" encoding="UTF-8" standalone="no"?>
<svg
   data-name="Layer 1"
   id="Layer_1"
   viewBox="0 0 512 512"
   version="1.1"
   sodipodi:docname="telegram_icon.svg"
   inkscape:version="1.2.1 (9c6d41e410, 2022-07-14)"
   xmlns:inkscape="http://www.inkscape.org/namespaces/inkscape"
   xmlns:sodipodi="http://sodipodi.sourceforge.net/DTD/sodipodi-0.dtd"
   xmlns="http://www.w3.org/2000/svg"
   xmlns:svg="http://www.w3.org/2000/svg">
  <defs
     id="defs152" />
  <sodipodi:namedview
     id="namedview150"
     pagecolor="#ffffff"
     bordercolor="#666666"
     borderopacity="1.0"
     inkscape:showpageshadow="2"
     inkscape:pageopacity="0.0"
     inkscape:pagecheckerboard="0"
     inkscape:deskcolor="#d1d1d1"
     showgrid="false"
     inkscape:zoom="1.6699219"
     inkscape:cx="256"
     inkscape:cy="256.29942"
     inkscape:window-width="1920"
     inkscape:window-height="1009"
     inkscape:window-x="1912"
     inkscape:window-y="-8"
     inkscape:window-maximized="1"
     inkscape:current-layer="Layer_1" />
  <title
     id="title145" />
  <path
     d="M256,0C114.615,0,0,114.615,0,256S114.615,512,256,512,512,397.385,512,256,397.385,0,256,0ZM389.059,161.936,343.591,379a16.007,16.007,0,0,1-25.177,9.593l-66.136-48.861-40.068,37.8a5.429,5.429,0,0,1-7.74-.294l-.861-.946,6.962-67.375L336.055,194.266a3.358,3.358,0,0,0-4.061-5.317L171.515,290.519,102.4,267.307a9.393,9.393,0,0,1-.32-17.694L372.5,147.744A12.441,12.441,0,0,1,389.059,161.936Z"
     id="path147"
     style="fill:#89d2dc;fill-opacity:1" />
</svg>
