<?xml version="1.0" encoding="UTF-8" standalone="no"?>
<!-- Created with Inkscape (http://www.inkscape.org/) -->

<svg
   width="187.23198mm"
   height="79.199821mm"
   viewBox="0 0 187.23198 79.199821"
   version="1.1"
   id="svg5"
   inkscape:version="1.3.2 (091e20e, 2023-11-25, custom)"
   sodipodi:docname="404.svg"
   xmlns:inkscape="http://www.inkscape.org/namespaces/inkscape"
   xmlns:sodipodi="http://sodipodi.sourceforge.net/DTD/sodipodi-0.dtd"
   xmlns="http://www.w3.org/2000/svg"
   xmlns:svg="http://www.w3.org/2000/svg">
  <sodipodi:namedview
     id="namedview7"
     pagecolor="#ffffff"
     bordercolor="#666666"
     borderopacity="1.0"
     inkscape:showpageshadow="2"
     inkscape:pageopacity="0.0"
     inkscape:pagecheckerboard="true"
     inkscape:deskcolor="#d1d1d1"
     inkscape:document-units="mm"
     showgrid="false"
     inkscape:zoom="0.19041983"
     inkscape:cx="2187.2723"
     inkscape:cy="-18.380439"
     inkscape:window-width="1920"
     inkscape:window-height="1009"
     inkscape:window-x="1912"
     inkscape:window-y="-8"
     inkscape:window-maximized="1"
     inkscape:current-layer="layer1" />
  <defs
     id="defs2" />
  <g
     inkscape:label="Слой 1"
     inkscape:groupmode="layer"
     id="layer1"
     transform="translate(-37.651457,-151.98861)">
    <path
       id="rect1004"
       style="fill:#ffffff;fill-opacity:1;stroke-width:0.465;stroke-linejoin:round;paint-order:stroke fill markers"
       d="m -18.101173,41.17808 0,190.01035 -0.173685,105.94737 302.970728,-1.76935 0.13237,-104.25573 -157.55573,-0.61703 0.35743,0.69474 c -7.00773,-0.55029 -12.6541,-3.30215 -16.9323,-8.26616 -4.77485,-5.61964 -7.16235,-13.24106 -7.16235,-22.86424 v -16.52819 c 0,-9.62318 2.3875,-17.22603 7.16235,-22.80894 4.81159,-5.58291 11.34962,-8.37469 19.61379,-8.37469 8.26418,0 14.80169,2.79178 19.61328,8.37469 4.81159,5.58291 7.21764,13.18576 7.21764,22.80894 v 16.52819 c 0,9.62318 -2.40605,17.2446 -7.21764,22.86424 -4.2782,4.96401 -9.92457,7.71587 -16.9323,8.26616 h 151.82391 l 0,-190.01035 z m 78.993072,113.0414 h 33.001604 v 75.2042 H 72.737688 V 172.0153 l -9.366353,18.6216 h 4.628141 v 16.36334 h -29.36565 z m 128.260391,0 h 33.0016 v 75.2042 H 200.99756 V 172.0153 l -9.36584,18.6216 h 4.62763 v 16.36334 h -29.36514 z m -58.84086,18.01596 c -3.56278,0 -5.34437,2.29571 -5.34437,6.88692 v 25.34367 c 0,4.59121 1.78159,6.8864 5.34437,6.8864 3.59951,0 5.39916,-2.29519 5.39916,-6.8864 v -25.34367 c 0,-4.59121 -1.79965,-6.88692 -5.39916,-6.88692 z"
       sodipodi:nodetypes="ccccccccsscsssscccccccccccccccccccccccccsssssss" />
  </g>
</svg>
