<?xml version="1.0" encoding="UTF-8" standalone="no"?>
<svg
   width="1123.5938"
   height="564.22852"
   viewBox="0 0 1123.5937 564.22852"
   fill="none"
   version="1.1"
   id="svg11"
   sodipodi:docname="contacts_letters.svg"
   inkscape:version="1.3.2 (091e20e, 2023-11-25, custom)"
   xmlns:inkscape="http://www.inkscape.org/namespaces/inkscape"
   xmlns:sodipodi="http://sodipodi.sourceforge.net/DTD/sodipodi-0.dtd"
   xmlns="http://www.w3.org/2000/svg"
   xmlns:svg="http://www.w3.org/2000/svg">
  <sodipodi:namedview
     id="namedview1"
     pagecolor="#ffffff"
     bordercolor="#666666"
     borderopacity="1.0"
     inkscape:showpageshadow="2"
     inkscape:pageopacity="0.0"
     inkscape:pagecheckerboard="0"
     inkscape:deskcolor="#d1d1d1"
     inkscape:zoom="0.59407593"
     inkscape:cx="446.91257"
     inkscape:cy="275.21735"
     inkscape:window-width="1920"
     inkscape:window-height="1009"
     inkscape:window-x="1912"
     inkscape:window-y="-8"
     inkscape:window-maximized="1"
     inkscape:current-layer="g8580" />
  <defs
     id="defs15" />
  <mask
     id="path-1-outside-1_645_432"
     maskUnits="userSpaceOnUse"
     x="0"
     y="0"
     width="1109"
     height="557"
     fill="#000000">
    <rect
       fill="#ffffff"
       width="1109"
       height="557"
       id="rect2"
       x="0"
       y="0" />
    <path
       fill-rule="evenodd"
       clip-rule="evenodd"
       d="m 47.0799,251.56 c 14.16,7.68 29.88,11.52 47.16,11.52 12.9601,0 23.1601,-1.56 30.6001,-4.68 7.44,-3.12 12.96,-6.96 16.56,-11.52 3.84,-4.56 6.6,-8.88 8.28,-12.96 h 6.48 v 24.12 h 43.92 V 129.16 H 93.5199 v 40.32 H 153.28 v 3.6 c 0,13.92 -3.96,25.44 -11.88,34.56 -7.92,9.12 -20.52,13.68 -37.8,13.68 -17.2801,0 -30.7201,-5.28 -40.3201,-15.84 -9.6,-10.8 -14.4,-24.96 -14.4,-42.48 v -61.92 c 0,-17.76 4.8,-31.8 14.4,-42.12 9.6,-10.32 22.8,-15.48 39.6001,-15.48 11.28,0 20.64,2.16 28.08,6.48 7.44,4.08 12.96,9.72 16.56,16.92 3.84,7.2 5.76,15.24 5.76,24.12 v 2.88 h 46.8 v -1.44 c 0,-28.08 -8.52,-50.28 -25.56,-66.6 C 157.72,9.28 133.84,1 102.88,1 71.6799,1 46.9599,9.76 28.7199,27.28 10.4799,44.56 1.35986,69.4 1.35986,101.8 v 60.48 c 0,21.6 4.08,39.96 12.24004,55.08 8.4,14.88 19.56,26.28 33.48,34.2 z M 74.44,341.2 V 550 h 47.52 V 341.2 H 195.4 V 298 H 1 v 43.2 z M 230.08,258 V 6 h 162 V 49.2 H 277.6 v 60.12 H 382 v 43.2 H 277.6 V 214.8 H 394.24 V 258 Z M 497.68,49.2 V 258 H 545.2 V 49.2 h 73.44 V 6 H 424.24 V 49.2 Z M 913.88,258 V 6 h 90.36 l 50.04,219.6 h 6.48 V 6 h 46.8 V 258 H 1017.2 L 967.16,38.4 h -6.48 V 258 Z M 836.36,6 v 252 h 47.52 V 6 Z M 329.08,555.08 c -31.68,0 -56.88,-8.64 -75.6,-25.92 C 234.76,511.64 225.4,486.68 225.4,454.28 V 393.8 c 0,-32.4 9.36,-57.24 28.08,-74.52 18.72,-17.52 43.92,-26.28 75.6,-26.28 31.68,0 56.88,8.76 75.6,26.28 18.72,17.28 28.08,42.12 28.08,74.52 v 60.48 c 0,32.4 -9.36,57.36 -28.08,74.88 -18.72,17.28 -43.92,25.92 -75.6,25.92 z m 0,-42.48 c 17.76,0 31.56,-5.16 41.4,-15.48 9.84,-10.32 14.76,-24.12 14.76,-41.4 v -63.36 c 0,-17.28 -4.92,-31.08 -14.76,-41.4 -9.84,-10.32 -23.64,-15.48 -41.4,-15.48 -17.52,0 -31.32,5.16 -41.4,15.48 -9.84,10.32 -14.76,24.12 -14.76,41.4 v 63.36 c 0,17.28 4.92,31.08 14.76,41.4 10.08,10.32 23.88,15.48 41.4,15.48 z m 179.04,31.28 c 14.88,7.44 32.64,11.16 53.28,11.16 20.64,0 38.28,-3.72 52.92,-11.16 14.88,-7.68 26.16,-18.48 33.84,-32.4 7.92,-14.16 11.88,-30.84 11.88,-50.04 V 298 h -47.52 v 164.88 c 0,15.36 -4.44,27.48 -13.32,36.36 -8.64,8.88 -21.24,13.32 -37.8,13.32 -16.56,0 -29.28,-4.44 -38.16,-13.32 -8.64,-8.88 -12.96,-21 -12.96,-36.36 V 298 h -47.52 v 163.44 c 0,19.2 3.84,35.88 11.52,50.04 7.92,13.92 19.2,24.72 33.84,32.4 z m 283.44,11.2 c -31.2,0 -55.92,-8.64 -74.16,-25.92 -18.24,-17.52 -27.36,-42.48 -27.36,-74.88 V 393.8 c 0,-32.4 9.12,-57.24 27.36,-74.52 18.24,-17.52 42.96,-26.28 74.16,-26.28 30.96,0 54.84,8.52 71.64,25.56 17.04,16.8 25.56,39.96 25.56,69.48 v 2.16 h -46.8 v -3.6 c 0,-14.88 -4.2,-27.12 -12.6,-36.72 -8.16,-9.6 -20.76,-14.4 -37.8,-14.4 -16.8,0 -30,5.16 -39.6,15.48 -9.6,10.32 -14.4,24.36 -14.4,42.12 V 455 c 0,17.52 4.8,31.56 14.4,42.12 9.6,10.32 22.8,15.48 39.6,15.48 17.04,0 29.64,-4.8 37.8,-14.4 8.4,-9.84 12.6,-22.08 12.6,-36.72 V 455 h 46.8 v 5.04 c 0,29.52 -8.52,52.8 -25.56,69.84 -16.8,16.8 -40.68,25.2 -71.64,25.2 z M 918.76,298 v 252 h 47.52 V 445.24 h 93.6 V 550 h 47.52 V 298 h -47.52 v 104.04 h -93.6 V 298 Z"
       id="path4" />
  </mask>
  <g
     id="g8580"
     transform="translate(6.4863233,3.2421867)">
    <path
       id="rect1436"
       style="opacity:1;fill:#0d1317;fill-opacity:1;stroke:none;stroke-width:23.6787;stroke-linecap:round;stroke-linejoin:round;stroke-opacity:0;paint-order:stroke fill markers"
       d="M -365.02635,-227.11929 V 784.86344 l 1889.48905,0 V -227.11929 Z M 106.12305,1 c 30.95997,0 54.83869,8.27986 71.63867,24.839844 17.03998,16.319983 25.56055,38.519637 25.56055,66.599609 v 1.441406 H 156.52344 V 91 c 0,-8.879991 -1.92173,-16.919148 -5.76172,-24.119141 -3.6,-7.199992 -9.1186,-12.839926 -16.5586,-16.919921 -7.43999,-4.319996 -16.80008,-6.480469 -28.08007,-6.480469 -16.800087,0 -29.999622,5.160479 -39.599612,15.480469 C 56.923447,69.280927 52.123047,83.320095 52.123047,101.08008 V 163 c 0,17.51998 4.8004,31.68048 14.400391,42.48047 9.59999,10.55999 23.038275,15.83984 40.318362,15.83984 17.27998,0 29.88079,-4.55969 37.80078,-13.67969 7.91999,-9.11999 11.88086,-20.64056 11.88086,-34.56054 v -3.59961 H 96.761719 V 129.16016 H 203.32227 v 128.8789 h -43.91993 v -24.11914 h -6.48046 c -1.68,4.08 -4.43931,8.40094 -8.2793,12.96094 -3.6,4.55999 -9.12056,8.39953 -16.56055,11.51953 -7.43999,3.12 -17.63952,4.67969 -30.599608,4.67969 -17.279983,0 -33.000171,-3.83954 -47.160156,-11.51953 C 36.40228,243.64055 25.241787,232.23936 16.841797,217.35938 8.6817646,202.23939 4.6035156,183.87928 4.6035156,162.2793 v -60.47852 c 0,-32.399967 9.1193944,-57.2415 27.3593754,-74.521483 C 50.202872,9.7593141 74.922977,1 106.12305,1 Z m 127.19922,5 h 162 V 49.199219 H 280.8418 v 60.121091 h 104.40039 v 43.19922 H 280.8418 v 62.28125 H 397.48242 V 258 H 233.32227 Z M 427.48242,6 H 621.88281 V 49.199219 H 548.44336 V 258 H 500.92188 V 49.199219 h -73.43946 z m 412.1211,0 h 47.51953 v 252 h -47.51953 z m 77.51953,0 h 90.35935 l 50.041,219.59961 h 6.4786 V 6 h 46.8007 v 252 h -90.3593 L 970.40234,38.400391 h -6.48046 V 258 H 917.12305 Z M 332.32227,293 c 31.67996,0 56.87962,8.75931 75.59961,26.2793 18.71998,17.27998 28.08007,42.12151 28.08007,74.52148 v 60.47852 c 0,32.39996 -9.36009,57.36087 -28.08007,74.88086 -18.71999,17.27998 -43.91965,25.91992 -75.59961,25.91992 -31.67997,0 -56.87963,-8.63994 -75.59961,-25.91992 -18.71999,-17.51999 -28.08008,-42.4809 -28.08008,-74.88086 v -60.47852 c 0,-32.39997 9.36009,-57.2415 28.08008,-74.52148 C 275.44264,301.75931 300.6423,293 332.32227,293 Z m 462.48046,0 c 30.95997,0 54.84065,8.52056 71.64063,25.56055 17.03998,16.79998 25.55859,39.95854 25.55859,69.47851 v 2.16016 h -46.79883 v -3.59961 c 0,-14.87999 -4.19961,-27.11876 -12.5996,-36.71875 -8.16,-9.59999 -20.7608,-14.40039 -37.80079,-14.40039 -16.79998,0 -29.99961,5.16048 -39.59961,15.48047 -9.59999,10.31999 -14.40039,24.35916 -14.40039,42.11914 V 455 c 0,17.51998 4.8004,31.55915 14.40039,42.11914 9.6,10.31999 22.79963,15.48047 39.59961,15.48047 17.03999,0 29.64079,-4.8004 37.80079,-14.40039 8.39999,-9.83999 12.59961,-22.07877 12.5996,-36.71875 V 455 h 46.79883 v 5.03906 c 0,29.51997 -8.51861,52.80182 -25.55859,69.8418 -16.79998,16.79998 -40.68066,25.19922 -71.64063,25.19922 -31.19996,0 -55.92017,-8.63994 -74.16015,-25.91992 C 702.4026,511.64017 693.2832,486.67926 693.2832,454.2793 v -60.47852 c 0,-32.39997 9.1194,-57.2415 27.35938,-74.52148 C 738.88256,301.75931 763.60277,293 794.80273,293 Z M 4.2421875,298 H 198.64258 v 43.19922 H 125.20312 V 550 H 77.683594 V 341.19922 H 4.2421875 Z m 461.7597625,0 h 47.52149 v 164.88086 c 0,15.35998 4.31899,27.47938 12.95898,36.35937 8.87999,8.88 21.60017,13.32032 38.16016,13.32032 16.55998,0 29.16079,-4.44032 37.80078,-13.32032 8.87999,-8.87999 13.31836,-20.99939 13.31836,-36.35937 V 298 h 47.52148 v 163.43945 c 0,19.19998 -3.96086,35.88103 -11.88086,50.04102 -7.67999,13.91998 -18.95985,24.7204 -33.83984,32.40039 -14.63999,7.43999 -32.27994,11.1582 -52.91992,11.1582 -20.63998,0 -38.39931,-3.71821 -53.2793,-11.1582 -14.63998,-7.67999 -25.91985,-18.48041 -33.83984,-32.40039 -7.67999,-14.15999 -11.52149,-30.84104 -11.52149,-50.04102 z m 456,0 h 47.52149 V 402.03906 H 1063.123 V 298 h 47.5196 V 550 H 1063.123 V 445.24023 H 969.52344 V 550 h -47.52149 z m -589.67968,37.48047 c -17.51999,0 -31.32041,5.16048 -41.40039,15.48047 -9.84,10.31999 -14.75977,24.11845 -14.75977,41.39844 v 63.36132 c 0,17.27999 4.91977,31.07845 14.75977,41.39844 10.07998,10.31999 23.8804,15.48047 41.40039,15.48047 17.75998,0 31.5604,-5.16048 41.40039,-15.48047 9.83999,-10.31999 14.75976,-24.11845 14.75976,-41.39844 v -63.36132 c 0,-17.27999 -4.91977,-31.07845 -14.75976,-41.39844 -9.83999,-10.31999 -23.64041,-15.48047 -41.40039,-15.48047 z"
       sodipodi:nodetypes="cccccscsccsccsssscssscccccccccssccsscsccccccccccccccccccccccccccccccccccccccccscsscscsscsscsccscsssscscsccssscsscscccccccccccscscsccsccsccsccccccccccccccscsscssssss" />
  </g>
</svg>
