<?xml version="1.0" encoding="UTF-8" standalone="no"?>
<!-- Created with Inkscape (http://www.inkscape.org/) -->

<svg
   width="185.49463mm"
   height="83.098274mm"
   viewBox="0 0 185.49463 83.098274"
   version="1.1"
   id="svg5"
   inkscape:version="1.2.1 (9c6d41e410, 2022-07-14)"
   sodipodi:docname="contacts_letters.svg"
   xmlns:inkscape="http://www.inkscape.org/namespaces/inkscape"
   xmlns:sodipodi="http://sodipodi.sourceforge.net/DTD/sodipodi-0.dtd"
   xmlns="http://www.w3.org/2000/svg"
   xmlns:svg="http://www.w3.org/2000/svg">
  <sodipodi:namedview
     id="namedview7"
     pagecolor="#ffffff"
     bordercolor="#666666"
     borderopacity="1.0"
     inkscape:showpageshadow="2"
     inkscape:pageopacity="0.0"
     inkscape:pagecheckerboard="0"
     inkscape:deskcolor="#d1d1d1"
     inkscape:document-units="mm"
     showgrid="false"
     inkscape:zoom="1.5233586"
     inkscape:cx="334.45835"
     inkscape:cy="537.62785"
     inkscape:window-width="1920"
     inkscape:window-height="1009"
     inkscape:window-x="1912"
     inkscape:window-y="-8"
     inkscape:window-maximized="1"
     inkscape:current-layer="layer1" />
  <defs
     id="defs2" />
  <g
     inkscape:label="Слой 1"
     inkscape:groupmode="layer"
     id="layer1"
     transform="translate(-14.589608,-91.801473)">
    <path
       id="rect2458"
       style="fill:#0d1317;fill-opacity:1;stroke:none;stroke-width:0.465;stroke-linejoin:round;paint-order:stroke fill markers"
       d="m 31.208231,91.801474 c -0.782444,0 -1.532892,0.0279 -2.25826,0.0775 h 4.317049 c -0.665447,-0.0498 -1.349973,-0.0775 -2.058789,-0.0775 z m 2.058789,0.0775 c 3.46411,0.25929 6.343198,1.19071 8.632031,2.79982 2.74505,1.9017 4.365626,4.77904 4.861719,8.632036 H 35.325809 c -0.429947,-2.06705 -2.033987,-3.10059 -4.812109,-3.10059 -2.331638,0 -3.497461,0.7028 -3.497461,2.1084 0,1.12448 1.074872,2.01745 3.224609,2.67891 2.149738,0.66146 4.506188,1.35599 7.069336,2.08359 4.034892,1.15755 6.813023,2.56316 8.334375,4.2168 1.537889,1.65364 2.306836,3.77858 2.306836,6.3748 0,3.78685 -1.438675,6.8213 -4.316016,9.10332 -2.860804,2.28203 -7.110682,3.42305 -12.749609,3.42305 -4.41523,0 -8.193818,-1.11621 -11.335742,-3.34863 -3.125388,-2.24896 -4.770769,-5.23379 -4.936133,-8.95449 h 11.434961 c 0.181901,1.19062 0.785483,2.14147 1.810742,2.85254 1.02526,0.69453 2.215887,1.04179 3.571875,1.04179 h 0.297656 c 1.438671,0 2.563152,-0.22324 3.373438,-0.66972 0.826822,-0.46302 1.240234,-1.14102 1.240234,-2.03399 0,-0.76067 -0.438217,-1.39733 -1.314648,-1.90996 -0.876432,-0.51263 -2.513544,-1.07487 -4.911328,-1.68672 l -4.663281,-1.24023 c -3.373435,-0.84336 -5.89525,-2.17455 -7.56543,-3.99356 -1.653644,-1.81901 -2.480469,-4.10104 -2.480469,-6.84609 0,-3.37344 1.331188,-6.151566 3.993555,-8.334376 2.275222,-1.85389 5.460459,-2.91734 9.548771,-3.1967 H 14.589607 V 174.89974 H 200.08423 V 91.878974 Z m 30.112891,0.86506 H 75.559012 L 88.655887,129.25653 H 76.675223 l -1.364258,-4.7625 h -11.90625 l -1.314648,4.7625 H 50.283036 Z m 26.243359,0 h 13.49375 l 6.17637,12.402346 6.00273,-12.402346 h 13.29532 l -13.49375,22.969136 v 13.54336 h -11.98067 v -13.2705 z M 69.382645,103.88134 65.686747,116.9038 h 7.491015 z m 111.571485,32.29157 c 5.75468,0 10.36836,1.75287 13.84102,5.25859 3.48919,3.48919 5.23379,8.08633 5.23379,13.79141 0,5.8539 -1.7198,10.54199 -5.15938,14.06425 -3.42304,3.52227 -8.01192,5.2834 -13.7666,5.2834 -5.96966,0 -10.67429,-1.73633 -14.11387,-5.20898 -3.42304,-3.47265 -5.13457,-8.23516 -5.13457,-14.2875 0,-5.8539 1.78594,-10.46758 5.35781,-13.84102 3.58841,-3.37343 8.16902,-5.06015 13.7418,-5.06015 z M 16.573465,137.11549 H 28.554129 V 149.369 H 39.98909 v -12.25351 h 11.980664 v 36.5125 H 39.98909 v -14.2627 H 28.554129 v 14.2627 H 16.573465 Z m 42.713672,0 h 29.840039 v 8.53281 H 71.267801 v 5.18418 h 15.056446 v 8.53281 H 71.267801 v 5.72988 h 18.603516 v 8.53282 h -30.58418 z m 36.686132,0 h 11.980671 v 27.97968 h 16.27187 v 8.53282 H 95.973269 Z m 33.883201,0 h 11.98067 v 27.97968 h 16.27187 v 8.53282 h -28.25254 z m 50.97364,7.9871 c -2.24896,0 -3.97702,0.89298 -5.18418,2.67891 -1.20716,1.7694 -1.81074,4.2168 -1.81074,7.34219 0,3.20807 0.60358,5.76296 1.81074,7.66465 1.20716,1.90169 2.97656,2.85254 5.3082,2.85254 2.28203,0 4.0349,-0.87644 5.25859,-2.6293 1.2237,-1.7694 1.83555,-4.34082 1.83555,-7.71426 0,-2.94349 -0.62839,-5.37435 -1.88516,-7.29258 -1.24023,-1.93476 -3.0179,-2.90215 -5.333,-2.90215 z"
       inkscape:export-filename="rect2458.svg"
       inkscape:export-xdpi="200"
       inkscape:export-ydpi="200" />
  </g>
</svg>
