<!-- icon666.com - MILLIONS vector ICONS FREE --><svg id="Capa_1" enable-background="new 0 0 494.868 494.868" viewBox="0 0 494.868 494.868" xmlns="http://www.w3.org/2000/svg"><g><path d="m247.434 132.398-3.144-26.596-74.851 17.916-29.315 39.538 7.27 28.182-40.897 30.224 6.237 76.299 35.07 6.997 46.586 4.335 43.662-32.475 9.382-29.4 21.806-11.013 2.836-68.613z" fill="#a9e4f9"></path><g><g id="XMLID_00000054240436023536196740000000703694194153040524_"><g><g fill="#cfeffc"><path d="m369.041 297.961c.018-.1.012-.188-.014-.265-.019.327-.016.434.014.265z" fill="#cfeffc"></path><path d="m347.064 189.918 13.555-40.523-93.038-33.321-20.147 16.324v115.02l-3.087 34.328 58.312 33.858 44.406-10.646c.27-.46 21.159-9.607 21.963-7.261.335-5.768 7.953-84.541 7.953-84.541z" fill="#cfeffc"></path></g><path d="m247.434 362.478c-.53 0-1.06-.14-1.53-.41l4.122-32.512-68.992-31.515-33.229 6.917c-.27-.46-.41-.98-.41-1.53v-111.99c0-.54.14-1.06.41-1.52v-.01-26.368l-83.415-47.467-31.236 7.644c-.22.38-.34.81-.34 1.26v244.92c0 .9.48 1.73 1.25 2.17l212.11 122.47c.39.22.82.33 1.26.33l12.218-22.938 8.438-85.032z" fill="#cfeffc"></path><path d="m461.714 123.718-47.681-14.604-81.745 58.309 15.186 24.016v111.99c0 .55-.14 1.07-.41 1.53l-40.334.513-62.383 37.312 3.087 19.695v132.39c.44 0 .87-.11 1.26-.33l212.11-122.47c.77-.44 1.25-1.27 1.25-2.17v-244.92c0-.451-.12-.881-.34-1.261z" fill="#e3f6fc"></path></g></g></g><g><path d="m79.462 150.08c0-.465.12-.908.34-1.301l29.133-7.357-44.545-25.349-31.236 7.644c-.22.38-.34.81-.34 1.26v244.92c0 .9.48 1.73 1.25 2.17l45.398 26.212z" fill="#a9e4f9"></path></g><path d="m248.694.338 212.11 122.46c.39.22.7.54.91.92l-114.65 66.2c-.26-.46-.64-.85-1.12-1.12l-96.98-55.99c-.47-.27-1-.41-1.53-.41s-1.06.14-1.53.41l-96.98 55.99c-.47.27-.86.66-1.12 1.11l-114.65-66.19c.21-.38.52-.7.91-.92l212.11-122.46c.78-.45 1.74-.45 2.52 0z" fill="#f3fbff"></path><path d="m286.862 22.374-38.168-22.036c-.78-.45-1.74-.45-2.52 0l-212.11 122.46c-.39.22-.7.54-.91.92l46.373 26.772z" fill="#e3f6fc"></path><path d="m247.434 362.478c-.53 0-1.06-.14-1.53-.41l-96.98-55.99c-.47-.28-.86-.66-1.12-1.12l99.63-57.54 99.63 57.54c-.26.46-.65.84-1.12 1.12l-96.98 55.99c-.47.27-1 .41-1.53.41z" fill="#81d9f8" style="fill: rgb(137, 210, 220);"></path></g></svg>